/* XPM */
static char *iceweasel[] = {
/* columns rows colors chars-per-pixel */
"32 32 26 1 ",
"  c #3465A4",
". c #3465A5",
"X c #3466A4",
"o c #3466A5",
"O c #3666A5",
"+ c #3C6BA7",
"@ c #426FAA",
"# c #4371AB",
"$ c #4B76AE",
"% c #517BB1",
"& c #6A8EBC",
"* c #7A9AC3",
"= c #7C9BC4",
"- c #9BB3D2",
"; c #A2B8D5",
": c #ABC0DA",
"> c #B8C9DF",
", c #D7E1ED",
"< c #E4EAF3",
"1 c #E7EDF4",
"2 c #EDF1F7",
"3 c #F5F7FA",
"4 c #F9FAFC",
"5 c #FDFDFE",
"6 c white",
"7 c None",
/* pixels */
"77777777777777777777777777777777",
"77777777777777777777777777777777",
"77777777777777777777777777777777",
"77777777777777777777777777777777",
"77777777777777777777777777777777",
"77777777777777777777777777777777",
"77777777777777777777777777777777",
"77777777777777777777777777777777",
"77777777777777777777777777777777",
"77777777777777777777777777777777",
"77777777777777777777777777777777",
"77777777777777777777777777777777",
"77777777777777777777777777777777",
"77777777777777777777777777777777",
"77777777777777777777777777777777",
"77777777777777777777777777777777",
"77777777777777777777777777777777",
"77777777777777777777777777777777",
"7777777777777777777777777777777$",
"777777777777777777777777777777+,",
"77777777777777777777777777777o>6",
"7777777777777777777777777777o*66",
"7777777777777777777777777777@266",
"777777777777777777777777777o;666",
"777777777777777777777777777#3666",
"77777777777777777777777777o-6666",
"77777777777777777777777777o16666",
"77777777777777777777777777&66666",
"7777777777777777777777777o;66666",
"7777777777777777777777777o166666",
"7777777777777777777777777%666666",
"7777777777777777777777777=666664"
};
