<?xml version="1.0" encoding="UTF-8" standalone="no"?>
<svg
   xmlns:dc="http://purl.org/dc/elements/1.1/"
   xmlns:cc="http://creativecommons.org/ns#"
   xmlns:rdf="http://www.w3.org/1999/02/22-rdf-syntax-ns#"
   xmlns:svg="http://www.w3.org/2000/svg"
   xmlns="http://www.w3.org/2000/svg"
   xmlns:xlink="http://www.w3.org/1999/xlink"
   xmlns:sodipodi="http://sodipodi.sourceforge.net/DTD/sodipodi-0.dtd"
   xmlns:inkscape="http://www.inkscape.org/namespaces/inkscape"
   width="40"
   viewBox="0 0 40 40"
   height="40"
   id="svg2"
   version="1.1"
   inkscape:version="0.91 r13725"
   sodipodi:docname="grid-selection-checked.svg">
  <metadata
     id="metadata20">
    <rdf:RDF>
      <cc:Work
         rdf:about="">
        <dc:format>image/svg+xml</dc:format>
        <dc:type
           rdf:resource="http://purl.org/dc/dcmitype/StillImage" />
      </cc:Work>
    </rdf:RDF>
  </metadata>
  <sodipodi:namedview
     pagecolor="#ffffff"
     bordercolor="#666666"
     borderopacity="1"
     objecttolerance="10"
     gridtolerance="10"
     guidetolerance="10"
     inkscape:pageopacity="0"
     inkscape:pageshadow="2"
     inkscape:window-width="980"
     inkscape:window-height="749"
     id="namedview18"
     showgrid="false"
     inkscape:zoom="6.75"
     inkscape:cx="20"
     inkscape:cy="20"
     inkscape:window-x="0"
     inkscape:window-y="27"
     inkscape:window-maximized="0"
     inkscape:current-layer="svg2" />
  <defs
     id="defs4">
    <linearGradient
       id="linearGradient5418">
      <stop
         offset="0"
         style="stop-color:#e5e5e5"
         id="stop7" />
      <stop
         offset="1"
         style="stop-color:#f9f9f9"
         id="stop9" />
    </linearGradient>
    <linearGradient
       gradientTransform="translate(-.00018 -40.35782)"
       xlink:href="#linearGradient5418"
       id="linearGradient5424"
       x1="1.429"
       x2="38.929"
       gradientUnits="userSpaceOnUse" />
  </defs>
  <rect
     width="37.5"
     x="1.429"
     y="-38.929"
     rx="1"
     height="37.5"
     style="fill:#f2f2f2"
     transform="rotate(90)"
     id="rect12" />
  <path
     style="fill:#aaa"
     d="M 5,0 C 2.23,0 0,2.23 0,5 l 0,30 c 0,2.77 2.23,5 5,5 l 30,0 c 2.77,0 5,-2.23 5,-5 L 40,5 C 40,2.23 37.77,0 35,0 z m 0,2.0536 30,0 c 1.385,0 3.035714,1.5614 3.035714,2.9464 l 0,30 c 0,1.385 -1.650714,3.0357 -3.035714,3.0357 l -30,0 C 3.615,38.0357 2.0535714,36.385 2.0535714,35 l 0,-30 C 2.0535714,3.615 3.615,2.0536 5,2.0536 z"
     id="path14" />
  <path
     d="M 9.5702293,19.950946 17.134519,27.90452 30.281623,11.502886"
     id="path5880"
     style="fill:none;stroke:#4787ee;stroke-width:6.73319483;stroke-linecap:round;stroke-linejoin:round;stroke-miterlimit:4;stroke-opacity:1;stroke-dasharray:none"
     inkscape:connector-curvature="0"
     sodipodi:nodetypes="ccc" />
  <path
     style="fill:#999999"
     d="M 15.652226,30.832864 C 15.004809,30.494203 7.5074375,22.749649 6.7686175,21.65637 6.5028036,21.263028 6.3757209,20.839059 6.3245508,20.174888 6.2615175,19.35674 6.3045533,19.146381 6.6811324,18.431917 c 0.745091,-1.413622 2.2832569,-2.060603 3.8595736,-1.623408 0.761482,0.211198 1.237145,0.644375 4.664787,4.248125 l 1.72363,1.812189 5.625047,-7.010104 c 5.275033,-6.5739067 5.67142,-7.0300539 6.37031,-7.3307081 1.020169,-0.4388652 1.861993,-0.4132077 2.848039,0.086804 1.095328,0.5554283 1.653874,1.3712565 1.738346,2.5390882 0.03522,0.486933 -0.01944,1.124415 -0.123438,1.439528 -0.117886,0.357196 -2.614615,3.596999 -6.776627,8.793477 -3.624483,4.525348 -6.79799,8.452714 -7.052237,8.727479 -0.982596,1.061893 -2.660025,1.370416 -3.906337,0.718477 z"
     id="path3339"
     inkscape:connector-curvature="0" />
</svg>
