<?xml version="1.0" encoding="UTF-8" standalone="no"?>
<svg
   xmlns:dc="http://purl.org/dc/elements/1.1/"
   xmlns:cc="http://creativecommons.org/ns#"
   xmlns:rdf="http://www.w3.org/1999/02/22-rdf-syntax-ns#"
   xmlns:svg="http://www.w3.org/2000/svg"
   xmlns="http://www.w3.org/2000/svg"
   xmlns:xlink="http://www.w3.org/1999/xlink"
   xmlns:sodipodi="http://sodipodi.sourceforge.net/DTD/sodipodi-0.dtd"
   xmlns:inkscape="http://www.inkscape.org/namespaces/inkscape"
   width="40"
   viewBox="0 0 40 40"
   height="40"
   id="svg2"
   version="1.1"
   inkscape:version="0.91 r13725"
   sodipodi:docname="grid-selection-checked-dark.svg">
  <metadata
     id="metadata20">
    <rdf:RDF>
      <cc:Work
         rdf:about="">
        <dc:format>image/svg+xml</dc:format>
        <dc:type
           rdf:resource="http://purl.org/dc/dcmitype/StillImage" />
      </cc:Work>
    </rdf:RDF>
  </metadata>
  <sodipodi:namedview
     pagecolor="#ffffff"
     bordercolor="#666666"
     borderopacity="1"
     objecttolerance="10"
     gridtolerance="10"
     guidetolerance="10"
     inkscape:pageopacity="0"
     inkscape:pageshadow="2"
     inkscape:window-width="1231"
     inkscape:window-height="856"
     id="namedview18"
     showgrid="false"
     inkscape:zoom="13"
     inkscape:cx="20"
     inkscape:cy="20"
     inkscape:window-x="0"
     inkscape:window-y="27"
     inkscape:window-maximized="0"
     inkscape:current-layer="svg2" />
  <defs
     id="defs4">
    <linearGradient
       id="linearGradient4421">
      <stop
         offset="0"
         style="stop-color:#262626"
         id="stop7" />
      <stop
         offset="1"
         style="stop-color:#393939"
         id="stop9" />
    </linearGradient>
    <linearGradient
       gradientTransform="translate(-.00018 -39.91182)"
       xlink:href="#linearGradient4421"
       id="linearGradient4427"
       x1="1.429"
       x2="38.483"
       gradientUnits="userSpaceOnUse" />
  </defs>
  <rect
     width="37.054"
     x="1.429"
     y="-38.483"
     rx="1"
     height="37.054"
     style="fill:#333333"
     transform="rotate(90)"
     id="rect12" />
  <path
     style="fill:#1f1f1f"
     d="M 5,0 C 2.23,0 0,2.23 0,5 l 0,30 c 0,2.77 2.23,5 5,5 l 30,0 c 2.77,0 5,-2.23 5,-5 L 40,5 C 40,2.23 37.77,0 35,0 z m 0,2.0536 30,0 c 1.385,0 3.035714,1.5614 3.035714,2.9464 l 0,30 c 0,1.385 -1.650714,3.0357 -3.035714,3.0357 l -30,0 C 3.615,38.0357 2.0535714,36.385 2.0535714,35 l 0,-30 C 2.0535714,3.615 3.615,2.0536 5,2.0536 z"
     id="path14" />
  <path
     d="M 9.4748113,20.247243 17.039101,28.200817 30.186205,11.799184"
     id="path5880"
     style="fill:none;stroke:#4787ee;stroke-width:6.73319483;stroke-linecap:round;stroke-linejoin:round;stroke-miterlimit:4;stroke-opacity:1;stroke-dasharray:none"
     inkscape:connector-curvature="0"
     sodipodi:nodetypes="ccc" />
  <path
     style="fill:#999999"
     d="M 15.996512,31.368938 C 15.736518,31.284133 15.329721,31.067775 15.092521,30.888143 14.85532,30.708511 12.881318,28.684728 10.705849,26.390848 6.4130885,21.864432 6.3740983,21.815856 6.1894597,20.764128 6.012738,19.757497 6.3945233,18.614151 7.1547988,17.873192 c 1.1370855,-1.108196 2.8594872,-1.265925 4.1923002,-0.383911 0.165647,0.10962 1.449976,1.408223 2.854064,2.885784 1.404089,1.47756 2.582677,2.686473 2.619085,2.686473 0.03641,0 1.66667,-1.999038 3.622805,-4.442307 8.11618,-10.1373482 7.518613,-9.4287609 8.260507,-9.7951986 1.869238,-0.9232584 4.055182,0.030106 4.663867,2.0340716 0.226841,0.746825 0.170846,1.621242 -0.147059,2.296477 -0.165922,0.352419 -2.061066,2.772271 -6.975625,8.906957 -3.711295,4.632693 -6.857888,8.520568 -6.99243,8.639724 -0.134541,0.119156 -0.503029,0.342882 -0.818861,0.497169 -0.51171,0.249974 -0.649921,0.282927 -1.269231,0.30261 -0.532733,0.01693 -0.805354,-0.01391 -1.167709,-0.132103 z"
     id="path3339"
     inkscape:connector-curvature="0" />
</svg>
