<?xml version="1.0" encoding="UTF-8" standalone="no"?>
<svg
   xmlns:dc="http://purl.org/dc/elements/1.1/"
   xmlns:cc="http://creativecommons.org/ns#"
   xmlns:rdf="http://www.w3.org/1999/02/22-rdf-syntax-ns#"
   xmlns:svg="http://www.w3.org/2000/svg"
   xmlns="http://www.w3.org/2000/svg"
   xmlns:sodipodi="http://sodipodi.sourceforge.net/DTD/sodipodi-0.dtd"
   xmlns:inkscape="http://www.inkscape.org/namespaces/inkscape"
   viewBox="0 0 16 16"
   id="svg2"
   version="1.1"
   inkscape:version="0.91 r13725"
   width="100%"
   height="100%"
   sodipodi:docname="menuitem-checkbox-checked-hover.svg">
  <metadata
     id="metadata12">
    <rdf:RDF>
      <cc:Work
         rdf:about="">
        <dc:format>image/svg+xml</dc:format>
        <dc:type
           rdf:resource="http://purl.org/dc/dcmitype/StillImage" />
      </cc:Work>
    </rdf:RDF>
  </metadata>
  <defs
     id="defs10" />
  <sodipodi:namedview
     pagecolor="#ffffff"
     bordercolor="#666666"
     borderopacity="1"
     objecttolerance="10"
     gridtolerance="10"
     guidetolerance="10"
     inkscape:pageopacity="0"
     inkscape:pageshadow="2"
     inkscape:window-width="984"
     inkscape:window-height="852"
     id="namedview8"
     showgrid="false"
     inkscape:zoom="42.1875"
     inkscape:cx="8"
     inkscape:cy="8"
     inkscape:window-x="0"
     inkscape:window-y="27"
     inkscape:window-maximized="0"
     inkscape:current-layer="svg2" />
  <path
     d="M 3.8219282,8.0944955 6.8737884,11.134304 12.178072,4.8656962"
     id="path5880"
     style="stroke:#aaccff;stroke-width:2.64400005;stroke-linecap:round;stroke-linejoin:round;stroke-miterlimit:4;stroke-opacity:1;stroke-dasharray:none;fill:none"
     inkscape:connector-curvature="0"
     sodipodi:nodetypes="ccc" />
  <path
     style="fill:#808080"
     d="M 6.6062222,12.420792 C 6.5214815,12.401714 6.3721481,12.347211 6.2743704,12.299673 6.1041353,12.216906 6.0268302,12.143722 4.4523355,10.574768 3.429273,9.555305 2.773859,8.8842707 2.717502,8.7985882 2.571812,8.5770882 2.5180012,8.3872614 2.5180012,8.0948148 c 0,-0.2922896 0.053743,-0.482025 0.1993446,-0.7037734 0.1770254,-0.2696059 0.3983051,-0.4399047 0.7056559,-0.5430791 0.1644992,-0.05522 0.2107474,-0.060586 0.4448836,-0.05161 0.2903222,0.011129 0.4517574,0.057006 0.6606694,0.187752 0.069526,0.043512 0.5837613,0.5358457 1.1941328,1.1432742 0.5896116,0.5867686 1.0758509,1.0621502 1.0805319,1.0564035 0.4047052,-0.49682 4.4565976,-5.2607547 4.5254476,-5.3207086 0.136824,-0.1191439 0.396931,-0.24072 0.611722,-0.2859236 0.783422,-0.1648738 1.542857,0.4635962 1.545568,1.2790323 7.58e-4,0.2280017 -0.0505,0.4450079 -0.148474,0.6285496 -0.06578,0.1232377 -5.4514898,6.5196598 -5.5769684,6.6235758 -0.3418247,0.283085 -0.7699982,0.398998 -1.1542924,0.312485 z"
     id="path3333"
     inkscape:connector-curvature="0" />
</svg>
