<?xml version="1.0" encoding="UTF-8" standalone="no"?>
<!-- Created with Inkscape (http://www.inkscape.org/) -->

<svg
   xmlns:dc="http://purl.org/dc/elements/1.1/"
   xmlns:cc="http://creativecommons.org/ns#"
   xmlns:rdf="http://www.w3.org/1999/02/22-rdf-syntax-ns#"
   xmlns:svg="http://www.w3.org/2000/svg"
   xmlns="http://www.w3.org/2000/svg"
   xmlns:sodipodi="http://sodipodi.sourceforge.net/DTD/sodipodi-0.dtd"
   xmlns:inkscape="http://www.inkscape.org/namespaces/inkscape"
   width="1020.0048"
   height="874.29529"
   id="svg6370"
   version="1.1"
   inkscape:version="0.91pre2 r13516"
   viewBox="0 0 1020.0047 874.29529"
   sodipodi:docname="login_logo_cropped.svg">
  <defs
     id="defs6372">
    <radialGradient
       id="SVGID_2_"
       cx="2146.8174"
       cy="478.19849"
       r="6.7435002"
       gradientTransform="matrix(1.0725,0,0,-0.9931,-583.3926,1412.5)"
       gradientUnits="userSpaceOnUse">
      <stop
         offset="0"
         style="stop-color:#FFF1E9"
         id="stop3002" />
      <stop
         offset="1"
         style="stop-color:#FFFFFF;stop-opacity:0.2"
         id="stop3004" />
    </radialGradient>
    <radialGradient
       id="SVGID_3_"
       cx="2176.1582"
       cy="498.5618"
       r="7.6339998"
       gradientTransform="matrix(1.0725,0,0,-0.9931,-583.3926,1412.5)"
       gradientUnits="userSpaceOnUse">
      <stop
         offset="0"
         style="stop-color:#FFF1E9"
         id="stop3009" />
      <stop
         offset="1"
         style="stop-color:#FFFFFF;stop-opacity:0.2"
         id="stop3011" />
    </radialGradient>
    <radialGradient
       id="SVGID_4_"
       cx="2185.4512"
       cy="528.25659"
       r="3.7077"
       gradientTransform="matrix(1.0725,0,0,-0.9931,-583.3926,1412.5)"
       gradientUnits="userSpaceOnUse">
      <stop
         offset="0"
         style="stop-color:#FFF1E9"
         id="stop3016" />
      <stop
         offset="1"
         style="stop-color:#FFFFFF;stop-opacity:0.2"
         id="stop3018" />
    </radialGradient>
    <radialGradient
       id="SVGID_5_"
       cx="2120.5449"
       cy="693.31232"
       r="3.3676"
       gradientTransform="matrix(1.0725,0,0,-0.9931,-583.3926,1412.5)"
       gradientUnits="userSpaceOnUse">
      <stop
         offset="0"
         style="stop-color:#FFF1E9"
         id="stop3023" />
      <stop
         offset="1"
         style="stop-color:#FFFFFF;stop-opacity:0.2"
         id="stop3025" />
    </radialGradient>
    <radialGradient
       id="SVGID_6_"
       cx="2121.502"
       cy="692.0271"
       r="0.86989999"
       gradientTransform="matrix(1.0725,0,0,-0.9931,-583.3926,1412.5)"
       gradientUnits="userSpaceOnUse">
      <stop
         offset="0"
         style="stop-color:#FFF1E9"
         id="stop3030" />
      <stop
         offset="1"
         style="stop-color:#FFFFFF;stop-opacity:0.2"
         id="stop3032" />
    </radialGradient>
    <radialGradient
       id="SVGID_7_"
       cx="2110.9863"
       cy="490.52371"
       r="181.8613"
       gradientTransform="matrix(1.0725,0,0,-0.9931,-583.3926,1412.5)"
       gradientUnits="userSpaceOnUse">
      <stop
         offset="0"
         style="stop-color:#FFF1E9"
         id="stop3037" />
      <stop
         offset="1"
         style="stop-color:#FFFFFF;stop-opacity:0.2"
         id="stop3039" />
    </radialGradient>
    <radialGradient
       id="SVGID_8_"
       cx="2075.959"
       cy="459.5647"
       r="9.1426001"
       gradientTransform="matrix(1.0725,0,0,-0.9931,-583.3926,1412.5)"
       gradientUnits="userSpaceOnUse">
      <stop
         offset="0"
         style="stop-color:#FFF1E9"
         id="stop3044" />
      <stop
         offset="1"
         style="stop-color:#FFFFFF;stop-opacity:0.2"
         id="stop3046" />
    </radialGradient>
    <radialGradient
       id="SVGID_9_"
       cx="2078.8184"
       cy="472.58179"
       r="5.9285998"
       gradientTransform="matrix(1.0725,0,0,-0.9931,-583.3926,1412.5)"
       gradientUnits="userSpaceOnUse">
      <stop
         offset="0"
         style="stop-color:#FFF1E9"
         id="stop3051" />
      <stop
         offset="1"
         style="stop-color:#FFFFFF;stop-opacity:0.2"
         id="stop3053" />
    </radialGradient>
    <radialGradient
       id="SVGID_10_"
       cx="2249.8457"
       cy="491.91821"
       r="15.0487"
       gradientTransform="matrix(1.0725,0,0,-0.9931,-583.3926,1412.5)"
       gradientUnits="userSpaceOnUse">
      <stop
         offset="0"
         style="stop-color:#FFF1E9"
         id="stop3058" />
      <stop
         offset="1"
         style="stop-color:#FFFFFF;stop-opacity:0.2"
         id="stop3060" />
    </radialGradient>
    <radialGradient
       id="SVGID_11_"
       cx="2123.4619"
       cy="698.66382"
       r="6.3271999"
       gradientTransform="matrix(1.0725,0,0,-0.9931,-583.3926,1412.5)"
       gradientUnits="userSpaceOnUse">
      <stop
         offset="0"
         style="stop-color:#FFF1E9"
         id="stop3065" />
      <stop
         offset="1"
         style="stop-color:#FFFFFF;stop-opacity:0.2"
         id="stop3067" />
    </radialGradient>
    <radialGradient
       id="SVGID_12_"
       cx="1966.1328"
       cy="605.51727"
       r="4.2332001"
       gradientTransform="matrix(1.0725,0,0,-0.9931,-583.3926,1412.5)"
       gradientUnits="userSpaceOnUse">
      <stop
         offset="0"
         style="stop-color:#FFF1E9"
         id="stop3072" />
      <stop
         offset="1"
         style="stop-color:#FFFFFF;stop-opacity:0.2"
         id="stop3074" />
    </radialGradient>
    <radialGradient
       id="SVGID_13_"
       cx="1956.8027"
       cy="572.02118"
       r="5.2405"
       gradientTransform="matrix(1.0725,0,0,-0.9931,-583.3926,1412.5)"
       gradientUnits="userSpaceOnUse">
      <stop
         offset="0"
         style="stop-color:#FFF1E9"
         id="stop3079" />
      <stop
         offset="1"
         style="stop-color:#FFFFFF;stop-opacity:0.2"
         id="stop3081" />
    </radialGradient>
    <linearGradient
       id="SVGID_14_"
       gradientUnits="userSpaceOnUse"
       x1="1884.0078"
       y1="492.96851"
       x2="2795.1436"
       y2="492.96851"
       gradientTransform="matrix(1,0,0,-1,-370.1396,1414.5581)">
      <stop
         offset="0"
         style="stop-color:#FFFFFF;stop-opacity:0.5"
         id="stop3087" />
      <stop
         offset="1"
         style="stop-color:#FFFFFF;stop-opacity:0"
         id="stop3089" />
    </linearGradient>
    <linearGradient
       id="SVGID_15_"
       gradientUnits="userSpaceOnUse"
       x1="1968.874"
       y1="623.40698"
       x2="2226.1133"
       y2="623.40698"
       gradientTransform="matrix(1,0,0,-1,-370.1396,1414.5581)">
      <stop
         offset="0"
         style="stop-color:#FFFFFF;stop-opacity:0.5"
         id="stop3094" />
      <stop
         offset="1"
         style="stop-color:#FFFFFF;stop-opacity:0"
         id="stop3096" />
    </linearGradient>
    <linearGradient
       id="SVGID_16_"
       gradientUnits="userSpaceOnUse"
       x1="1490.4814"
       y1="559.43768"
       x2="2186.2031"
       y2="559.43768"
       gradientTransform="matrix(1,0,0,-1,-370.1396,1414.5581)">
      <stop
         offset="0"
         style="stop-color:#FFFFFF;stop-opacity:0.5"
         id="stop3101" />
      <stop
         offset="1"
         style="stop-color:#FFFFFF;stop-opacity:0"
         id="stop3103" />
    </linearGradient>
    <linearGradient
       id="SVGID_17_"
       gradientUnits="userSpaceOnUse"
       x1="2133.0742"
       y1="436.4631"
       x2="2139.2012"
       y2="436.4631"
       gradientTransform="matrix(1,0,0,-1,-370.1396,1414.5581)">
      <stop
         offset="0"
         style="stop-color:#FFFFFF;stop-opacity:0.5"
         id="stop3108" />
      <stop
         offset="1"
         style="stop-color:#FFFFFF;stop-opacity:0"
         id="stop3110" />
    </linearGradient>
    <linearGradient
       id="SVGID_18_"
       gradientUnits="userSpaceOnUse"
       x1="1448.4756"
       y1="284.39331"
       x2="2361.0127"
       y2="284.39331"
       gradientTransform="matrix(1,0,0,-1,-370.1396,1414.5581)">
      <stop
         offset="0"
         style="stop-color:#FFFFFF;stop-opacity:0"
         id="stop3115" />
      <stop
         offset="1"
         style="stop-color:#FFFFFF;stop-opacity:0.5"
         id="stop3117" />
    </linearGradient>
    <radialGradient
       id="SVGID_19_"
       cx="1879.1934"
       cy="436.46701"
       r="486.3092"
       gradientTransform="matrix(1,0,0,-1,-370.1396,1414.5581)"
       gradientUnits="userSpaceOnUse">
      <stop
         offset="0"
         style="stop-color:#FFFFFF;stop-opacity:0.5"
         id="stop3122" />
      <stop
         offset="1"
         style="stop-color:#FFFFFF;stop-opacity:0"
         id="stop3124" />
    </radialGradient>
    <radialGradient
       id="SVGID_20_"
       cx="1910.4883"
       cy="503.66379"
       r="466.0838"
       gradientTransform="matrix(1,0,0,-1,-370.1396,1414.5581)"
       gradientUnits="userSpaceOnUse">
      <stop
         offset="0"
         style="stop-color:#FFFFFF;stop-opacity:0.5"
         id="stop3129" />
      <stop
         offset="1"
         style="stop-color:#FFFFFF;stop-opacity:0"
         id="stop3131" />
    </radialGradient>
    <linearGradient
       id="SVGID_21_"
       gradientUnits="userSpaceOnUse"
       x1="1142.0469"
       y1="1043.9666"
       x2="1592.0254"
       y2="1043.9666"
       gradientTransform="matrix(0.5366,0,0,-0.4054,968.6461,1402.0491)">
      <stop
         offset="0"
         style="stop-color:#FFFFFF;stop-opacity:0.5"
         id="stop3136" />
      <stop
         offset="1"
         style="stop-color:#FFFFFF;stop-opacity:0"
         id="stop3138" />
    </linearGradient>
    <clipPath
       clipPathUnits="userSpaceOnUse"
       id="clipPath4302">
      <rect
         style="fill:#0000ff;fill-opacity:0.15837103;fill-rule:evenodd;stroke:#000000;stroke-width:0.9903481px;stroke-linecap:butt;stroke-linejoin:miter;stroke-opacity:1"
         id="rect4304"
         width="1020.0096"
         height="874.29529"
         x="-696.75702"
         y="-557.0932" />
    </clipPath>
  </defs>
  <sodipodi:namedview
     id="base"
     pagecolor="#ffffff"
     bordercolor="#666666"
     borderopacity="1.0"
     inkscape:pageopacity="0"
     inkscape:pageshadow="2"
     inkscape:zoom="0.35"
     inkscape:cx="423.18073"
     inkscape:cy="263.8394"
     inkscape:document-units="px"
     inkscape:current-layer="layer1"
     showgrid="false"
     fit-margin-top="0"
     fit-margin-left="0"
     fit-margin-right="0"
     fit-margin-bottom="0"
     inkscape:window-width="1920"
     inkscape:window-height="1026"
     inkscape:window-x="-2"
     inkscape:window-y="-3"
     inkscape:window-maximized="1" />
  <metadata
     id="metadata6375">
    <rdf:RDF>
      <cc:Work
         rdf:about="">
        <dc:format>image/svg+xml</dc:format>
        <dc:type
           rdf:resource="http://purl.org/dc/dcmitype/StillImage" />
        <dc:title></dc:title>
      </cc:Work>
    </rdf:RDF>
  </metadata>
  <g
     inkscape:label="Calque 1"
     inkscape:groupmode="layer"
     id="layer1"
     transform="translate(696.75218,557.0932)">
    <g
       id="g4492"
       clip-path="url(#clipPath4302)">
      <g
         transform="translate(-1577.9602,-848.63864)"
         id="g2996">
        <g
           id="logo">
          <g
             id="g2999">
            <radialGradient
               gradientUnits="userSpaceOnUse"
               gradientTransform="matrix(1.0725,0,0,-0.9931,-583.3926,1412.5)"
               r="6.7435002"
               cy="478.19849"
               cx="2146.8174"
               id="radialGradient6219">
              <stop
                 id="stop6221"
                 style="stop-color:#FFF1E9"
                 offset="0" />
              <stop
                 id="stop6223"
                 style="stop-color:#FFFFFF;stop-opacity:0.2"
                 offset="1" />
            </radialGradient>
            <path
               style="fill:url(#SVGID_2_)"
               inkscape:connector-curvature="0"
               id="path3006"
               d="m 1711.877,935.587 c -6.849,0.098 1.299,3.521 10.231,4.898 2.472,-1.928 4.718,-3.872 6.704,-5.768 -5.564,1.365 -11.228,1.391 -16.935,0.87" />
            <radialGradient
               gradientUnits="userSpaceOnUse"
               gradientTransform="matrix(1.0725,0,0,-0.9931,-583.3926,1412.5)"
               r="7.6339998"
               cy="498.5618"
               cx="2176.1582"
               id="radialGradient6226">
              <stop
                 id="stop6228"
                 style="stop-color:#FFF1E9"
                 offset="0" />
              <stop
                 id="stop6230"
                 style="stop-color:#FFFFFF;stop-opacity:0.2"
                 offset="1" />
            </radialGradient>
            <path
               style="fill:url(#SVGID_3_)"
               inkscape:connector-curvature="0"
               id="path3013"
               d="m 1748.632,926.44 c 4.076,-5.614 7.051,-11.765 8.095,-18.123 -0.911,4.528 -3.379,8.446 -5.694,12.573 -12.801,8.043 -1.21,-4.774 -0.01,-9.653 -13.763,17.296 -1.897,10.373 -2.391,15.203" />
            <radialGradient
               gradientUnits="userSpaceOnUse"
               gradientTransform="matrix(1.0725,0,0,-0.9931,-583.3926,1412.5)"
               r="3.7077"
               cy="528.25659"
               cx="2185.4512"
               id="radialGradient6233">
              <stop
                 id="stop6235"
                 style="stop-color:#FFF1E9"
                 offset="0" />
              <stop
                 id="stop6237"
                 style="stop-color:#FFFFFF;stop-opacity:0.2"
                 offset="1" />
            </radialGradient>
            <path
               style="fill:url(#SVGID_4_)"
               inkscape:connector-curvature="0"
               id="path3020"
               d="m 1762.202,891.202 c 0.818,-12.307 -2.432,-8.422 -3.527,-3.713 1.274,0.659 2.294,8.671 3.527,3.713" />
            <radialGradient
               gradientUnits="userSpaceOnUse"
               gradientTransform="matrix(1.0725,0,0,-0.9931,-583.3926,1412.5)"
               r="3.3676"
               cy="693.31232"
               cx="2120.5449"
               id="radialGradient6240">
              <stop
                 id="stop6242"
                 style="stop-color:#FFF1E9"
                 offset="0" />
              <stop
                 id="stop6244"
                 style="stop-color:#FFFFFF;stop-opacity:0.2"
                 offset="1" />
            </radialGradient>
            <path
               style="fill:url(#SVGID_5_)"
               inkscape:connector-curvature="0"
               id="path3027"
               d="m 1685.904,722.952 c 3.657,0.658 7.899,1.158 7.299,2.032 4.004,-0.878 4.909,-1.68 -7.299,-2.032" />
            <radialGradient
               gradientUnits="userSpaceOnUse"
               gradientTransform="matrix(1.0725,0,0,-0.9931,-583.3926,1412.5)"
               r="0.86989999"
               cy="692.0271"
               cx="2121.502"
               id="radialGradient6247">
              <stop
                 id="stop6249"
                 style="stop-color:#FFF1E9"
                 offset="0" />
              <stop
                 id="stop6251"
                 style="stop-color:#FFFFFF;stop-opacity:0.2"
                 offset="1" />
            </radialGradient>
            <path
               style="fill:url(#SVGID_6_)"
               inkscape:connector-curvature="0"
               id="path3034"
               d="m 1693.205,724.984 -2.571,0.527 2.395,-0.211 0.176,-0.316" />
            <radialGradient
               gradientUnits="userSpaceOnUse"
               gradientTransform="matrix(1.0725,0,0,-0.9931,-583.3926,1412.5)"
               r="181.8613"
               cy="490.52371"
               cx="2110.9863"
               id="radialGradient6254">
              <stop
                 id="stop6256"
                 style="stop-color:#FFF1E9"
                 offset="0" />
              <stop
                 id="stop6258"
                 style="stop-color:#FFFFFF;stop-opacity:0.2"
                 offset="1" />
            </radialGradient>
            <path
               style="fill:url(#SVGID_7_)"
               inkscape:connector-curvature="0"
               id="path3041"
               d="m 1807.17,895.869 c 0.408,11.057 -3.237,16.422 -6.524,25.916 l -5.923,2.949 c -4.846,9.387 0.468,5.961 -2.997,13.422 -7.562,6.719 -22.948,21.008 -27.873,22.308 -3.595,-0.075 2.438,-4.233 3.225,-5.863 -10.118,6.942 -8.117,10.421 -23.598,14.636 l -0.451,-1.008 c -38.182,17.931 -91.217,-17.598 -90.514,-66.08 -0.417,3.08 -1.154,2.311 -2.006,3.556 -1.975,-24.942 11.543,-49.993 34.321,-60.223 22.294,-11.021 48.416,-6.497 64.385,8.355 -8.771,-11.469 -26.222,-23.616 -46.911,-22.482 -20.27,0.319 -39.218,13.171 -45.542,27.125 -10.386,6.524 -11.591,25.147 -16.116,28.555 -6.087,44.648 11.445,63.937 41.104,86.627 4.67,3.143 1.322,3.607 1.953,6.008 -9.857,-4.604 -18.875,-11.562 -26.295,-20.069 3.936,5.745 8.184,11.342 13.674,15.737 -9.29,-3.139 -21.705,-22.48 -25.331,-23.263 16.02,28.623 64.979,50.206 90.625,39.495 -11.863,0.443 -26.936,0.241 -40.271,-4.673 -5.595,-2.878 -13.211,-8.829 -11.842,-9.948 34.993,13.045 71.134,9.88 101.412,-14.342 7.7,-5.991 16.121,-16.176 18.545,-16.315 -3.657,5.491 0.627,2.638 -2.183,7.494 7.677,-12.354 -3.334,-5.026 7.931,-21.333 l 4.167,5.72 c -1.55,-10.251 12.76,-22.712 11.312,-38.932 3.282,-4.963 3.66,5.339 0.177,16.748 4.835,-12.658 1.279,-14.688 2.514,-25.131 1.347,3.5 3.107,7.232 4.005,10.934 -3.147,-12.227 3.232,-20.596 4.811,-27.704 -1.551,-0.688 -4.86,5.406 -5.616,-9.042 0.115,-6.277 1.752,-3.288 2.382,-4.836 -1.23,-0.713 -4.472,-5.519 -6.441,-14.746 1.427,-2.166 3.811,5.619 5.763,5.938 -1.249,-7.337 -3.407,-12.93 -3.493,-18.557 -5.679,-11.851 -2.005,1.575 -6.619,-5.089 -6.037,-18.825 5.021,-4.373 5.766,-12.921 9.164,13.252 14.39,33.782 16.782,42.284 -1.829,-10.366 -4.782,-20.409 -8.4,-30.137 2.786,1.171 -4.478,-21.33 3.618,-6.429 -8.648,-31.771 -37.018,-61.455 -63.123,-75.383 3.198,2.91 7.226,14.187 5.779,14.76 -12.981,-7.713 -10.702,-15.924 -12.555,-19.183 -10.583,-4.288 -11.271,0.345 -18.273,0.013 -19.935,-10.555 -23.775,-9.436 -42.117,-16.046 l 0.838,3.896 c -13.213,-4.394 -15.388,1.664 -29.659,0.013 -0.871,-0.679 4.573,-2.445 9.05,-3.104 -12.761,1.688 -12.174,-2.509 -24.659,0.465 3.079,-2.161 6.327,-3.585 9.618,-5.417 -10.414,0.626 -24.857,6.05 -20.395,1.126 -16.987,7.558 -47.145,18.179 -64.071,34.019 l -0.529,-3.548 c -7.757,9.293 -33.821,27.753 -35.893,39.788 l -2.075,0.479 c -4.033,6.822 -6.649,14.555 -9.848,21.565 -5.277,8.98 -7.737,3.459 -6.984,4.861 -10.373,21.012 -15.539,38.664 -19.989,53.136 3.175,4.742 0.077,28.517 1.272,47.546 -5.213,93.973 66.078,185.211 144.006,206.279 11.411,4.081 28.4,3.925 42.847,4.339 -17.045,-4.86 -19.255,-2.577 -35.855,-8.36 -11.979,-5.621 -14.603,-12.056 -23.084,-19.4 l 3.358,5.922 c -16.642,-5.882 -9.679,-7.271 -23.217,-11.552 l 3.588,-4.676 c -5.391,-0.407 -14.288,-9.07 -16.712,-13.866 l -5.896,0.234 c -7.101,-8.73 -10.869,-15.021 -10.598,-19.892 l -1.9,3.387 c -2.16,-3.704 -26.088,-32.747 -13.676,-25.983 -2.302,-2.107 -5.372,-3.422 -8.689,-9.454 l 2.527,-2.878 c -5.972,-7.67 -10.992,-17.5 -10.612,-20.772 3.185,4.29 5.396,5.094 7.585,5.834 -15.078,-37.354 -15.928,-2.06 -27.354,-38.021 l 2.424,-0.192 c -1.858,-2.782 -2.98,-5.806 -4.47,-8.776 l 1.048,-10.466 c -10.854,-12.521 -3.035,-53.277 -1.471,-75.622 1.081,-9.089 9.061,-18.757 15.129,-33.938 l -3.696,-0.627 c 7.067,-12.302 40.341,-49.404 55.753,-47.492 7.465,-9.366 -1.484,-0.046 -2.938,-2.394 16.397,-16.94 21.553,-11.976 32.619,-15.019 11.935,-7.074 -10.248,2.756 -4.58,-2.695 20.634,-5.267 14.618,-11.961 41.532,-14.632 2.838,1.614 -6.585,2.49 -8.951,4.579 17.188,-8.391 54.396,-6.481 78.566,4.666 28.048,13.082 59.554,51.753 60.802,88.134 l 1.416,0.384 c -0.725,14.46 2.212,31.187 -2.864,46.556 l 3.45,-7.277" />
            <radialGradient
               gradientUnits="userSpaceOnUse"
               gradientTransform="matrix(1.0725,0,0,-0.9931,-583.3926,1412.5)"
               r="9.1426001"
               cy="459.5647"
               cx="2075.959"
               id="radialGradient6261">
              <stop
                 id="stop6263"
                 style="stop-color:#FFF1E9"
                 offset="0" />
              <stop
                 id="stop6265"
                 style="stop-color:#FFFFFF;stop-opacity:0.2"
                 offset="1" />
            </radialGradient>
            <path
               style="fill:url(#SVGID_8_)"
               inkscape:connector-curvature="0"
               id="path3048"
               d="m 1637.128,944.972 -0.961,4.79 c 4.498,6.101 8.071,12.713 13.814,17.479 -4.133,-8.044 -7.2,-11.381 -12.853,-22.269" />
            <radialGradient
               gradientUnits="userSpaceOnUse"
               gradientTransform="matrix(1.0725,0,0,-0.9931,-583.3926,1412.5)"
               r="5.9285998"
               cy="472.58179"
               cx="2078.8184"
               id="radialGradient6268">
              <stop
                 id="stop6270"
                 style="stop-color:#FFF1E9"
                 offset="0" />
              <stop
                 id="stop6272"
                 style="stop-color:#FFFFFF;stop-opacity:0.2"
                 offset="1" />
            </radialGradient>
            <path
               style="fill:url(#SVGID_9_)"
               inkscape:connector-curvature="0"
               id="path3055"
               d="m 1647.767,944.559 c -2.374,-2.635 -3.792,-5.799 -5.362,-8.954 1.501,5.537 4.595,10.305 7.472,15.148 l -2.11,-6.194" />
            <radialGradient
               gradientUnits="userSpaceOnUse"
               gradientTransform="matrix(1.0725,0,0,-0.9931,-583.3926,1412.5)"
               r="15.0487"
               cy="491.91821"
               cx="2249.8457"
               id="radialGradient6275">
              <stop
                 id="stop6277"
                 style="stop-color:#FFF1E9"
                 offset="0" />
              <stop
                 id="stop6279"
                 style="stop-color:#FFFFFF;stop-opacity:0.2"
                 offset="1" />
            </radialGradient>
            <path
               style="fill:url(#SVGID_10_)"
               inkscape:connector-curvature="0"
               id="path3062"
               d="m 1836.039,903.709 -1.011,2.521 c -1.84,13.075 -5.823,26.02 -11.932,38.014 6.749,-12.66 11.115,-26.513 12.943,-40.535" />
            <radialGradient
               gradientUnits="userSpaceOnUse"
               gradientTransform="matrix(1.0725,0,0,-0.9931,-583.3926,1412.5)"
               r="6.3271999"
               cy="698.66382"
               cx="2123.4619"
               id="radialGradient6282">
              <stop
                 id="stop6284"
                 style="stop-color:#FFF1E9"
                 offset="0" />
              <stop
                 id="stop6286"
                 style="stop-color:#FFFFFF;stop-opacity:0.2"
                 offset="1" />
            </radialGradient>
            <path
               style="fill:url(#SVGID_11_)"
               inkscape:connector-curvature="0"
               id="path3069"
               d="m 1687.264,719.677 c 4.624,-1.689 11.38,-0.931 16.29,-2.041 -6.405,0.526 -12.771,0.854 -19.065,1.664 l 2.775,0.377" />
            <radialGradient
               gradientUnits="userSpaceOnUse"
               gradientTransform="matrix(1.0725,0,0,-0.9931,-583.3926,1412.5)"
               r="4.2332001"
               cy="605.51727"
               cx="1966.1328"
               id="radialGradient6289">
              <stop
                 id="stop6291"
                 style="stop-color:#FFF1E9"
                 offset="0" />
              <stop
                 id="stop6293"
                 style="stop-color:#FFFFFF;stop-opacity:0.2"
                 offset="1" />
            </radialGradient>
            <path
               style="fill:url(#SVGID_12_)"
               inkscape:connector-curvature="0"
               id="path3076"
               d="m 1524.704,805.959 c 1.068,9.861 -7.434,13.687 1.886,7.184 4.987,-11.229 -1.954,-3.098 -1.886,-7.184" />
            <radialGradient
               gradientUnits="userSpaceOnUse"
               gradientTransform="matrix(1.0725,0,0,-0.9931,-583.3926,1412.5)"
               r="5.2405"
               cy="572.02118"
               cx="1956.8027"
               id="radialGradient6296">
              <stop
                 id="stop6298"
                 style="stop-color:#FFF1E9"
                 offset="0" />
              <stop
                 id="stop6300"
                 style="stop-color:#FFFFFF;stop-opacity:0.2"
                 offset="1" />
            </radialGradient>
            <path
               style="fill:url(#SVGID_13_)"
               inkscape:connector-curvature="0"
               id="path3083"
               d="m 1513.761,851.589 c 2.146,-6.574 2.532,-10.521 3.349,-14.325 -5.922,7.568 -2.726,9.179 -3.349,14.325" />
          </g>
        </g>
        <g
           id="ray">
          <linearGradient
             gradientTransform="matrix(1,0,0,-1,-370.1396,1414.5581)"
             y2="492.96851"
             x2="2795.1436"
             y1="492.96851"
             x1="1884.0078"
             gradientUnits="userSpaceOnUse"
             id="linearGradient6304">
            <stop
               id="stop6306"
               style="stop-color:#FFFFFF;stop-opacity:0.5"
               offset="0" />
            <stop
               id="stop6308"
               style="stop-color:#FFFFFF;stop-opacity:0"
               offset="1" />
          </linearGradient>
          <path
             style="fill:none;stroke:url(#SVGID_14_);stroke-width:1.5;stroke-miterlimit:10"
             inkscape:connector-curvature="0"
             id="path3091"
             d="m 2424.254,921.587 c 0,177.966 -203.626,322.239 -454.818,322.239 -251.192,0 -454.817,-144.276 -454.817,-322.24 0,-12.026 0.926,-23.896 2.742,-35.582 24.998,-161.223 217.86,-286.654 452.075,-286.65 251.192,-0.001 454.818,144.269 454.818,322.233 z"
             stroke-miterlimit="10" />
          <linearGradient
             gradientTransform="matrix(1,0,0,-1,-370.1396,1414.5581)"
             y2="623.40698"
             x2="2226.1133"
             y1="623.40698"
             x1="1968.874"
             gradientUnits="userSpaceOnUse"
             id="linearGradient6311">
            <stop
               id="stop6313"
               style="stop-color:#FFFFFF;stop-opacity:0.5"
               offset="0" />
            <stop
               id="stop6315"
               style="stop-color:#FFFFFF;stop-opacity:0"
               offset="1" />
          </linearGradient>
          <ellipse
             style="fill:none;stroke:url(#SVGID_15_);stroke-width:1.5;stroke-miterlimit:10"
             id="ellipse3098"
             ry="195.552"
             rx="127.869"
             cy="791.151"
             cx="1727.354"
             stroke-miterlimit="10"
             d="M 1855.223,791.151 A 127.869,195.552 0 0 1 1727.354,986.703 127.869,195.552 0 0 1 1599.485,791.151 127.869,195.552 0 0 1 1727.354,595.599 127.869,195.552 0 0 1 1855.223,791.151 Z" />
          <linearGradient
             gradientTransform="matrix(1,0,0,-1,-370.1396,1414.5581)"
             y2="559.43768"
             x2="2186.2031"
             y1="559.43768"
             x1="1490.4814"
             gradientUnits="userSpaceOnUse"
             id="linearGradient6318">
            <stop
               id="stop6320"
               style="stop-color:#FFFFFF;stop-opacity:0.5"
               offset="0" />
            <stop
               id="stop6322"
               style="stop-color:#FFFFFF;stop-opacity:0"
               offset="1" />
          </linearGradient>
          <path
             style="fill:none;stroke:url(#SVGID_16_);stroke-width:1.5;stroke-miterlimit:10"
             inkscape:connector-curvature="0"
             id="path3105"
             d="m 1468.203,628.825 c 191.701,0 347.11,101.313 347.11,226.298 0,124.979 -155.409,226.293 -347.11,226.293 -191.707,0 -347.111,-101.314 -347.111,-226.293 0,-124.985 155.404,-226.298 347.111,-226.298 z"
             stroke-miterlimit="10" />
          <linearGradient
             gradientTransform="matrix(1,0,0,-1,-370.1396,1414.5581)"
             y2="436.4631"
             x2="2139.2012"
             y1="436.4631"
             x1="2133.0742"
             gradientUnits="userSpaceOnUse"
             id="linearGradient6325">
            <stop
               id="stop6327"
               style="stop-color:#FFFFFF;stop-opacity:0.5"
               offset="0" />
            <stop
               id="stop6329"
               style="stop-color:#FFFFFF;stop-opacity:0"
               offset="1" />
          </linearGradient>
          <path
             style="fill:none;stroke:url(#SVGID_17_);stroke-miterlimit:10"
             inkscape:connector-curvature="0"
             id="path3112"
             d="m 1765.998,976.282 c 1.418,0 2.563,0.813 2.563,1.812 0,1.003 -1.146,1.814 -2.563,1.814 -1.414,0 -2.563,-0.813 -2.563,-1.814 0,-1 1.149,-1.812 2.563,-1.812 z"
             stroke-miterlimit="10" />
          <linearGradient
             gradientTransform="matrix(1,0,0,-1,-370.1396,1414.5581)"
             y2="284.39331"
             x2="2361.0127"
             y1="284.39331"
             x1="1448.4756"
             gradientUnits="userSpaceOnUse"
             id="linearGradient6332">
            <stop
               id="stop6334"
               style="stop-color:#FFFFFF;stop-opacity:0"
               offset="0" />
            <stop
               id="stop6336"
               style="stop-color:#FFFFFF;stop-opacity:0.5"
               offset="1" />
          </linearGradient>
          <path
             style="fill:none;stroke:url(#SVGID_18_);stroke-width:1.5;stroke-miterlimit:10"
             inkscape:connector-curvature="0"
             id="path3119"
             d="m 1534.603,675.863 c 251.576,0 455.521,203.397 455.521,454.303 0,250.902 -203.943,454.301 -455.521,454.301 -251.572,0 -455.517,-203.397 -455.517,-454.301 0,-250.906 203.943,-454.303 455.517,-454.303 z"
             stroke-miterlimit="10" />
          <radialGradient
             gradientUnits="userSpaceOnUse"
             gradientTransform="matrix(1,0,0,-1,-370.1396,1414.5581)"
             r="486.3092"
             cy="436.46701"
             cx="1879.1934"
             id="radialGradient6339">
            <stop
               id="stop6341"
               style="stop-color:#FFFFFF;stop-opacity:0.5"
               offset="0" />
            <stop
               id="stop6343"
               style="stop-color:#FFFFFF;stop-opacity:0"
               offset="1" />
          </radialGradient>
          <line
             style="fill:none;stroke:url(#SVGID_19_);stroke-width:1.5;stroke-miterlimit:10"
             id="line3126"
             y2="1665.8361"
             x2="1509.054"
             y1="290.34601"
             x1="1509.054"
             stroke-miterlimit="10" />
          <radialGradient
             gradientUnits="userSpaceOnUse"
             gradientTransform="matrix(1,0,0,-1,-370.1396,1414.5581)"
             r="466.0838"
             cy="503.66379"
             cx="1910.4883"
             id="radialGradient6346">
            <stop
               id="stop6348"
               style="stop-color:#FFFFFF;stop-opacity:0.5"
               offset="0" />
            <stop
               id="stop6350"
               style="stop-color:#FFFFFF;stop-opacity:0"
               offset="1" />
          </radialGradient>
          <line
             style="fill:none;stroke:url(#SVGID_20_);stroke-width:1.5;stroke-miterlimit:10"
             id="line3133"
             y2="910.89398"
             x2="2199.49"
             y1="910.89398"
             x1="881.20801"
             stroke-miterlimit="10" />
          <linearGradient
             gradientTransform="matrix(0.5366,0,0,-0.4054,968.6461,1402.0491)"
             y2="1043.9666"
             x2="1592.0254"
             y1="1043.9666"
             x1="1142.0469"
             gradientUnits="userSpaceOnUse"
             id="linearGradient6353">
            <stop
               id="stop6355"
               style="stop-color:#FFFFFF;stop-opacity:0.5"
               offset="0" />
            <stop
               id="stop6357"
               style="stop-color:#FFFFFF;stop-opacity:0"
               offset="1" />
          </linearGradient>
          <path
             style="fill:none;stroke:url(#SVGID_21_);stroke-width:1.5;stroke-miterlimit:10"
             inkscape:connector-curvature="0"
             id="path3140"
             d="m 1702.2,829.289 c 66.455,0 120.324,66.954 120.324,149.539 0,82.581 -53.869,149.533 -120.324,149.533 -66.454,0 -120.329,-66.952 -120.329,-149.533 0,-82.585 53.875,-149.539 120.329,-149.539 z"
             stroke-miterlimit="10" />
        </g>
      </g>
      <g
         transform="translate(-1577.9602,-848.63864)"
         id="g3142">
        <g
           style="opacity:0.8"
           id="g3144">
          <path
             style="opacity:0.8;fill:#ffffff"
             inkscape:connector-curvature="0"
             id="path3146"
             d="m 1236.647,854.2 c -0.102,0.104 -0.102,16.823 -0.313,21.19 -0.205,3.529 -0.52,11.117 -7.998,11.117 -7.688,0 -9.556,-8.834 -10.179,-12.679 -0.724,-4.253 -0.724,-7.792 -0.724,-9.344 0,-4.991 0.313,-18.911 12.047,-18.911 3.53,0 5.507,1.042 7.063,1.869 l 0.104,6.758 z m -30.12,12.259 c 0,29.298 15.581,29.298 17.868,29.298 6.438,0 10.595,-3.539 12.355,-9.66 l 0.207,9.244 c 1.977,-0.115 3.949,-0.315 7.168,-0.315 1.142,0 2.075,0 2.91,0.103 0.831,0 1.657,0.101 2.596,0.216 -1.66,-3.322 -2.906,-10.807 -2.906,-27.019 0,-15.788 0,-42.479 1.347,-50.581 -3.734,1.77 -6.96,2.91 -14.021,3.531 2.799,3.013 2.799,4.571 2.799,18.276 -1.969,-0.619 -4.461,-1.35 -8.717,-1.35 -18.594,0.002 -21.606,16.206 -21.606,28.257"
             enable-background="new    " />
          <path
             style="opacity:0.8;fill:#ffffff"
             inkscape:connector-curvature="0"
             id="path3148"
             d="m 1262.854,861.156 c 0.104,-8.621 1.873,-16.307 9.244,-16.307 8.103,0 8.722,8.932 8.515,16.307 l -17.759,0 z m 28.045,1.046 c 0,-12.158 -2.389,-24.104 -17.764,-24.104 -21.183,0 -21.183,23.479 -21.183,28.461 0,21.082 9.447,29.396 25.337,29.396 7.063,0 10.492,-1.039 12.361,-1.553 -0.103,-3.746 0.415,-6.131 1.042,-9.352 -2.186,1.354 -4.987,3.121 -11.223,3.121 -16.202,0 -16.41,-14.764 -16.41,-19.851 l 27.632,0 0.208,-6.118"
             enable-background="new    " />
          <path
             style="opacity:0.8;fill:#ffffff"
             inkscape:connector-curvature="0"
             id="path3150"
             d="m 1324.688,866.662 c 0,9.659 -1.767,22.657 -13.813,22.657 -1.666,0 -3.738,-0.324 -5.088,-0.632 -0.212,-3.745 -0.212,-10.182 -0.212,-17.664 0,-8.93 0.935,-13.598 1.665,-15.889 2.182,-7.375 7.063,-7.478 7.994,-7.478 7.897,0.003 9.454,10.908 9.454,19.006 z m -29.805,11.325 c 0,7.688 0,12.056 -1.246,15.368 4.252,1.669 9.553,2.601 15.894,2.601 4.045,0 15.784,0 22.117,-12.98 3.015,-6.029 4.053,-14.131 4.053,-20.26 0,-3.742 -0.415,-11.943 -3.431,-17.14 -2.905,-4.876 -7.579,-7.371 -12.563,-7.371 -9.976,0 -12.878,8.312 -14.437,12.566 0,-5.295 0.101,-23.783 0.932,-33.234 -6.748,3.116 -10.909,3.631 -15.368,4.052 4.049,1.656 4.049,8.518 4.049,30.85 l 0,25.548"
             enable-background="new    " />
          <path
             style="opacity:0.8;fill:#ffffff"
             inkscape:connector-curvature="0"
             id="path3152"
             d="m 1355.668,895.341 c -2.08,-0.315 -3.537,-0.522 -6.553,-0.522 -3.318,0 -5.605,0.207 -7.994,0.522 1.039,-1.984 1.454,-2.922 1.766,-9.668 0.416,-9.242 0.522,-33.968 -0.203,-39.162 -0.521,-3.949 -1.457,-4.568 -2.911,-5.606 8.52,-0.832 10.905,-1.453 14.854,-3.322 -0.832,4.563 -0.938,6.856 -0.938,13.813 -0.207,35.839 -0.312,39.684 1.979,43.945"
             enable-background="new    " />
          <path
             style="opacity:0.8;fill:#ffffff"
             inkscape:connector-curvature="0"
             id="path3154"
             d="m 1388.924,865.931 c -0.207,6.545 -0.313,11.121 -2.08,14.75 -2.18,4.676 -5.813,6.029 -8.518,6.029 -6.236,0 -7.582,-5.191 -7.582,-10.281 0,-9.766 8.729,-10.5 12.67,-10.5 l 5.51,0 0,0.002 0,0 z m -28.565,12.783 c 0,6.545 1.977,13.09 7.793,15.896 2.598,1.146 5.19,1.146 6.024,1.146 9.558,0 12.773,-7.068 14.75,-11.436 -0.106,4.571 0,7.379 0.313,11.02 1.869,-0.115 3.737,-0.316 6.854,-0.316 1.767,0 3.426,0.201 5.188,0.316 -1.144,-1.771 -1.763,-2.814 -2.076,-6.859 -0.207,-3.945 -0.207,-7.898 -0.207,-13.404 l 0.106,-21.188 c 0,-7.898 -2.079,-15.688 -17.661,-15.688 -10.281,0 -16.304,3.116 -19.316,4.677 1.248,2.283 2.287,4.252 3.221,8.727 4.056,-3.532 9.353,-5.405 14.748,-5.405 8.627,0 8.627,5.718 8.627,13.813 -1.975,-0.101 -3.641,-0.305 -6.446,-0.305 -13.193,0.004 -21.918,5.088 -21.918,19.006"
             enable-background="new    " />
          <path
             style="opacity:0.8;fill:#ffffff"
             inkscape:connector-curvature="0"
             id="path3156"
             d="m 1448.75,885.052 c 0.104,3.537 0.104,7.272 1.562,10.289 -2.291,-0.207 -3.642,-0.522 -7.892,-0.522 -2.5,0 -3.85,0.207 -5.826,0.522 0.416,-1.354 0.627,-1.869 0.836,-3.64 0.312,-2.383 0.519,-10.389 0.519,-13.194 l 0,-11.222 c 0,-4.879 0,-11.946 -0.313,-14.436 -0.209,-1.764 -0.725,-6.541 -6.752,-6.541 -5.918,0 -7.893,4.355 -8.621,7.892 -0.827,3.635 -0.827,7.583 -0.827,22.957 0.1,13.302 0.1,14.545 1.139,18.186 -1.766,-0.216 -3.945,-0.425 -7.057,-0.425 -2.498,0 -4.16,0.106 -6.232,0.425 0.729,-1.662 1.146,-2.5 1.35,-8.314 0.213,-5.713 0.627,-33.764 -0.313,-40.409 -0.521,-4.054 -1.558,-4.984 -2.699,-6.023 8.414,-0.416 11.113,-1.769 13.713,-3.113 l 0,11.008 c 1.244,-3.227 3.842,-10.391 14.23,-10.391 12.979,0 13.084,9.451 13.188,15.682 l 0,31.271"
             enable-background="new    " />
          <path
             style="opacity:0.8;fill:#ffffff"
             inkscape:connector-curvature="0"
             id="path3158"
             d="m 1356.541,822.884 -8.603,8.598 -8.6,-8.598 8.6,-8.601 8.603,8.601"
             enable-background="new    " />
        </g>
        <text
           style="font-size:58.46279907px;font-family:Poppl-Laudatio-Condensed;opacity:0.8;fill:#ffffff"
           id="text3160"
           font-size="58.4628"
           enable-background="new    "
           transform="translate(1459.0781,876.906)">8</text>
      </g>
    </g>
  </g>
</svg>
